<?xml version="1.0" standalone="no"?>
<!DOCTYPE svg PUBLIC "-//W3C//DTD SVG 20010904//EN"
 "http://www.w3.org/TR/2001/REC-SVG-20010904/DTD/svg10.dtd">
<svg version="1.0" xmlns="http://www.w3.org/2000/svg"
 width="300.000000pt" height="139.000000pt" viewBox="0 0 300.000000 139.000000"
 preserveAspectRatio="xMidYMid meet">
<metadata>
Created by potrace 1.10, written by Peter Selinger 2001-2011
</metadata>
<g transform="translate(0.000000,139.000000) scale(0.100000,-0.100000)"
fill="#000000" stroke="none">
<path d="M474 1066 c-80 -37 -129 -117 -122 -201 3 -44 2 -45 -31 -56 -19 -7
-53 -30 -75 -53 -65 -65 -84 -161 -47 -241 61 -133 212 -173 336 -89 33 22 38
23 52 9 28 -28 76 -47 132 -52 156 -14 277 157 215 305 -20 49 -60 90 -109
113 -38 17 -39 19 -36 63 3 59 -25 121 -77 168 -69 62 -152 74 -238 34z m176
-28 c60 -31 101 -92 108 -158 2 -28 9 -53 13 -56 31 -19 -17 -106 -84 -150
-32 -21 -56 -28 -102 -30 -33 -2 -61 -7 -63 -13 -6 -18 112 -5 156 18 22 11
60 43 84 71 24 27 46 50 50 50 14 0 70 -54 85 -83 22 -43 19 -126 -6 -175 -46
-90 -178 -122 -264 -64 -57 39 -76 45 -83 27 -4 -8 -11 -15 -17 -15 -6 0 -18
-7 -28 -16 -10 -9 -43 -18 -76 -21 -87 -8 -147 26 -187 104 -37 74 -4 193 64
228 41 21 46 20 79 -28 26 -39 131 -110 131 -89 0 4 -21 18 -47 32 -72 38
-129 133 -93 155 6 3 10 24 10 46 0 51 20 97 56 130 69 63 139 75 214 37z"/>
<path d="M1662 915 c-17 -14 -34 -39 -37 -56 -12 -51 11 -84 95 -139 43 -28
81 -58 84 -67 11 -29 6 -52 -16 -67 -30 -21 -66 -20 -111 4 -47 25 -47 25 -47
-6 0 -32 48 -54 118 -54 61 0 99 26 108 76 10 54 -11 90 -80 136 -84 56 -106
78 -106 104 0 46 95 61 144 23 l26 -20 0 31 c0 26 -6 33 -35 46 -54 22 -109
18 -143 -11z"/>
<path d="M1133 730 l2 -200 26 0 26 0 -5 80 -5 80 44 0 45 0 34 -80 c32 -72
38 -80 63 -80 15 0 27 3 27 8 0 4 -18 41 -40 82 l-40 75 30 23 c55 43 58 144
5 190 -23 19 -37 22 -120 22 l-94 0 2 -200z m168 149 c30 -15 42 -56 29 -95
-12 -37 -23 -42 -95 -46 l-50 -2 -3 77 -3 77 51 0 c28 0 60 -5 71 -11z"/>
<path d="M1417 733 l2 -198 87 -3 c102 -3 114 0 107 27 -5 19 -13 21 -77 21
l-71 0 0 65 c0 74 3 77 87 78 44 1 48 3 48 25 0 23 -2 24 -52 20 -29 -3 -60
-8 -68 -12 -14 -6 -16 4 -16 64 l0 70 72 0 c68 0 84 7 84 36 0 2 -46 4 -102 4
l-103 0 2 -197z"/>
<path d="M1880 779 c0 -168 9 -202 59 -232 60 -35 161 -12 193 45 8 15 14 78
16 181 l4 157 -28 0 -29 0 3 -127 c5 -158 -6 -199 -53 -219 -40 -16 -75 -7
-99 28 -13 18 -16 51 -16 170 l0 148 -25 0 -25 0 0 -151z"/>
<path d="M2185 730 l0 -200 25 0 25 0 -3 176 c-3 125 -1 174 7 170 6 -4 11
-12 11 -19 0 -6 19 -83 42 -169 42 -154 44 -158 70 -158 30 0 28 -4 89 228 18
67 35 122 39 122 4 0 5 -79 2 -175 l-5 -175 27 0 26 0 0 200 0 200 -43 0 -43
0 -34 -127 c-18 -71 -37 -143 -42 -160 -9 -34 -28 -45 -28 -17 0 12 -48 192
-76 287 -4 13 -16 17 -47 17 l-42 0 0 -200z"/>
<path d="M2587 733 l2 -198 23 -3 23 -3 0 201 0 200 -25 0 -25 0 2 -197z"/>
</g>
</svg>
